<svg height="45px" viewBox="0 0 56 60" width="43px" xmlns="http://www.w3.org/2000/svg"><g id="027---Calculating-Investment"><path id="Shape" d="m52 16h-14v-14c0-1.1045695-.8954305-2-2-2h-34c-1.1045695 0-2 .8954305-2 2v37c0 .609-.21.2 12.292 12.706.421.422-.233.294 13.708.294v4c0 2.209139 1.790861 4 4 4h22c2.209139 0 4-1.790861 4-4v-36c0-2.209139-1.790861-4-4-4zm-40 32.586-8.586-8.586h8.586zm2 1.414v-10c0-1.1045695-.8954305-2-2-2h-10v-36h34v14h-6c-2.209139 0-4 1.790861-4 4v30zm40 6c0 1.1045695-.8954305 2-2 2h-22c-1.1045695 0-2-.8954305-2-2v-36c0-1.1045695.8954305-2 2-2h22c1.1045695 0 2 .8954305 2 2z"/><path id="Shape" d="m50 20h-18c-1.1045695 0-2 .8954305-2 2v8c0 1.1045695.8954305 2 2 2h18c1.1045695 0 2-.8954305 2-2v-8c0-1.1045695-.8954305-2-2-2zm-14.414 2-3.586 3.586v-3.586zm-3.586 6.414 6.414-6.414h3.172l-8 8h-1.586zm4.414 1.586 8-8h5.586v8z"/><path id="Shape" d="m34 34h-2c-1.1045695 0-2 .8954305-2 2v2c0 1.1045695.8954305 2 2 2h2c1.1045695 0 2-.8954305 2-2v-2c0-1.1045695-.8954305-2-2-2zm-2 4v-2h2v2z"/><path id="Shape" d="m34 42h-2c-1.1045695 0-2 .8954305-2 2v2c0 1.1045695.8954305 2 2 2h2c1.1045695 0 2-.8954305 2-2v-2c0-1.1045695-.8954305-2-2-2zm-2 4v-2h2v2z"/><path id="Shape" d="m34 50h-2c-1.1045695 0-2 .8954305-2 2v2c0 1.1045695.8954305 2 2 2h2c1.1045695 0 2-.8954305 2-2v-2c0-1.1045695-.8954305-2-2-2zm-2 4v-2h2v2z"/><path id="Shape" d="m42 34h-2c-1.1045695 0-2 .8954305-2 2v2c0 1.1045695.8954305 2 2 2h2c1.1045695 0 2-.8954305 2-2v-2c0-1.1045695-.8954305-2-2-2zm-2 4v-2h2v2z"/><path id="Shape" d="m42 42h-2c-1.1045695 0-2 .8954305-2 2v2c0 1.1045695.8954305 2 2 2h2c1.1045695 0 2-.8954305 2-2v-2c0-1.1045695-.8954305-2-2-2zm-2 4v-2h2v2z"/><path id="Shape" d="m42 50h-2c-1.1045695 0-2 .8954305-2 2v2c0 1.1045695.8954305 2 2 2h2c1.1045695 0 2-.8954305 2-2v-2c0-1.1045695-.8954305-2-2-2zm-2 4v-2h2v2z"/><path id="Shape" d="m50 34h-2c-1.1045695 0-2 .8954305-2 2v2c0 1.1045695.8954305 2 2 2h2c1.1045695 0 2-.8954305 2-2v-2c0-1.1045695-.8954305-2-2-2zm-2 4v-2h2v2z"/><path id="Shape" d="m50 42h-2c-1.1045695 0-2 .8954305-2 2v2c0 1.1045695.8954305 2 2 2h2c1.1045695 0 2-.8954305 2-2v-2c0-1.1045695-.8954305-2-2-2zm-2 4v-2h2v2z"/><path id="Shape" d="m50 50h-2c-1.1045695 0-2 .8954305-2 2v2c0 1.1045695.8954305 2 2 2h2c1.1045695 0 2-.8954305 2-2v-2c0-1.1045695-.8954305-2-2-2zm-2 4v-2h2v2z"/><path id="Shape" d="m6 15c0-.5522847-.44771525-1-1-1-1.922 0-1.141 4.244 3 4.919 0 .5522847.44771525 1 1 1s1-.4477153 1-1c2.279-.372 4-1.987 4-3.919s-1.721-3.547-4-3.919v-3.954c1.15.283 2 1.022 2 1.873 0 .55228475.4477153 1 1 1 1.922 0 1.141-4.244-3-4.919 0-.55228475-.44771525-1-1-1s-1 .44771525-1 1c-2.279.372-4 1.987-4 3.919s1.721 3.547 4 3.919v3.954c-1.15-.283-2-1.022-2-1.873zm4 1.873v-3.746c2.657.653 2.657 3.093 0 3.746zm-2-9.746v3.746c-2.657-.653-2.657-3.093 0-3.746z"/><path id="Shape" d="m17 6h16c.5522847 0 1-.44771525 1-1s-.4477153-1-1-1h-16c-.5522847 0-1 .44771525-1 1s.4477153 1 1 1z"/><path id="Shape" d="m17 10h16c.5522847 0 1-.44771525 1-1s-.4477153-1-1-1h-16c-.5522847 0-1 .44771525-1 1s.4477153 1 1 1z"/><path id="Shape" d="m17 14h16c.5522847 0 1-.4477153 1-1s-.4477153-1-1-1h-16c-.5522847 0-1 .4477153-1 1s.4477153 1 1 1z"/><path id="Shape" d="m23 22h-18c-.55228475 0-1 .4477153-1 1s.44771525 1 1 1h18c.5522847 0 1-.4477153 1-1s-.4477153-1-1-1z"/><path id="Shape" d="m23 26h-18c-.55228475 0-1 .4477153-1 1s.44771525 1 1 1h18c.5522847 0 1-.4477153 1-1s-.4477153-1-1-1z"/><path id="Shape" d="m23 30h-18c-.55228475 0-1 .4477153-1 1s.44771525 1 1 1h18c.5522847 0 1-.4477153 1-1s-.4477153-1-1-1z"/><path id="Shape" d="m23 34h-18c-.55228475 0-1 .4477153-1 1s.44771525 1 1 1h18c.5522847 0 1-.4477153 1-1s-.4477153-1-1-1z"/><path id="Shape" d="m23 38h-6c-.5522847 0-1 .4477153-1 1s.4477153 1 1 1h6c.5522847 0 1-.4477153 1-1s-.4477153-1-1-1z"/></g></svg>